# xmcd
#
# Track frame offsets: 
#        150
#        15542
#        37898
#        52595
#        77749
#        95325
#        125932
#        139683
#        168144
#        196315
#        212072
#        230580
#        245030
#
# Disc length: 3545 seconds
#
# Revision: 0
# Processed by: cddbd v1.5.2PL0 Copyright (c) Steve Scherf et al.
# Submitted via: ExactAudioCopy v0.95b3
#
DISCID=a60dd70d
DTITLE=Genesis  - Extra Tracks - 1976-1982 - 1976-1982 (Hybrid SACD Bo
DTITLE=xset) [CD6 of6)  FLAC
DYEAR=1900
DGENRE=
TTITLE0=Paperlate
TTITLE1=Evidence Of Autumn
TTITLE2=Pigeons
TTITLE3=You Might Recall
TTITLE4=Naminanu
TTITLE5=Inside And Out
TTITLE6=Vancouver
TTITLE7=Me And Virgil
TTITLE8=Its Yourself
TTITLE9=Match Of The Day
TTITLE10=Open Door
TTITLE11=The Light Went Out
TTITLE12=Submarine
EXTD=
EXTT0=
EXTT1=
EXTT2=
EXTT3=
EXTT4=
EXTT5=
EXTT6=
EXTT7=
EXTT8=
EXTT9=
EXTT10=
EXTT11=
EXTT12=
PLAYORDER=
